<?xml version="1.0" encoding="UTF-8" standalone="no"?>
<svg
   width="512"
   height="512"
   viewBox="0 0 512 512"
   version="1.1"
   xmlns="http://www.w3.org/2000/svg"
   xmlns:svg="http://www.w3.org/2000/svg">
  <circle cx="256" cy="256" r="256" fill="#000000" />
  <path
     d="M 256,60 C 174.8,60 108.8,126 108.8,207.2 c 0,101.12 147.2,244.8 147.2,244.8 0,0 147.2,-143.68 147.2,-244.8 C 403.2,126 337.2,60 256,60 Z m 0,200 c -29.2,0 -52.8,-23.6 -52.8,-52.8 0,-29.2 23.6,-52.8 52.8,-52.8 29.2,0 52.8,23.6 52.8,52.8 0,29.2 -23.6,52.8 -52.8,52.8 z"
     fill="#000000" />
  <path
     d="m 245,155 c -15,0 -33,12 -36,27 l 30,30 c 15,-3 27,-21 27,-36 0,-12 -9,-21 -21,-21 z"
     fill="#68D391" />
  <path
     d="m 209,182 c -3,15 6,36 18,48 l 48,48 c 12,12 33,21 48,18 l -96,-96 c -6,-6 -15,-15 -18,-18 z"
     fill="#68D391" />
</svg>