<svg width="512" height="160" viewBox="0 0 512 160" fill="none" xmlns="http://www.w3.org/2000/svg">
  <rect width="512" height="160" rx="20" fill="#68D391" fill-opacity="0.2"/>
  <path d="M60 120H124V100H90V80H120V60H90V40H124V20H60V120Z" fill="#68D391" stroke="#2E7D32" stroke-width="6"/>
  <path d="M140 120H160V40H140V120Z" fill="#68D391" stroke="#2E7D32" stroke-width="6"/>
  <path d="M190 120L220 30H250L280 120H260L250 90H220L210 120H190ZM226 70H244L235 40L226 70Z" fill="#68D391" stroke="#2E7D32" stroke-width="6"/>
  <path d="M300 120V20H320V100H370V120H300Z" fill="#68D391" stroke="#2E7D32" stroke-width="6"/>
  <path d="M390 120V20H450C460 20 468 23 474 29C480 35 483 42 483 50C483 58 480 65 474 71C468 77 460 80 450 80H410V120H390ZM410 60H450C453 60 456 59 458 57C460 55 461 53 461 50C461 47 460 45 458 43C456 41 453 40 450 40H410V60Z" fill="#68D391" stroke="#2E7D32" stroke-width="6"/>
  <path d="M95 90C93.8 88.8 92.2 88 90.4 87.8C88.6 87.6 86.8 88 85.4 89C84 90 82.9 91.6 82.2 93.5C81.5 95.4 81.4 97.4 82 99.4L70 111.4C68 109.8 65.7 109 63.2 109C60.7 109 58.4 109.8 56.4 111.4L27 82C26 81 24.7 80.5 23.2 80.5C21.7 80.5 20.4 81 19.4 82C18.4 83 17.9 84.3 17.9 85.8C17.9 87.3 18.4 88.6 19.4 89.6L48.8 119C46.2 121 45.4 123.3 45.4 125.8C45.4 129.3 46.8 132.6 49.3 135.1C51.8 137.6 55.1 139 58.6 139C62.1 139 65.4 137.6 67.9 135.1C70.4 132.6 71.8 129.3 71.8 125.8C71.8 123.3 71 121 69.4 119L81.4 107C83.2 107.6 85.2 107.5 87 106.8C88.8 106.1 90.4 104.5 91.4 102.5C92.4 100.5 92.8 98.2 92.5 96C92.2 93.8 91.4 91.8 90 90.2L95 90Z" fill="#68D391" stroke="#2E7D32" stroke-width="6"/>
</svg>