<?xml version="1.0" encoding="UTF-8" standalone="no"?>
<svg
   width="512"
   height="256"
   viewBox="0 0 512 256"
   version="1.1"
   xmlns="http://www.w3.org/2000/svg"
   xmlns:svg="http://www.w3.org/2000/svg">
  <g transform="translate(0,-128)">
    <!-- Pin shape -->
    <path
       d="M 170,160 C 126,160 90,196 90,240 c 0,55 80,130 80,130 0,0 80,-75 80,-130 0,-44 -36,-80 -80,-80 z m 0,108 c -15,0 -28,-13 -28,-28 0,-15 13,-28 28,-28 15,0 28,13 28,28 0,15 -13,28 -28,28 z"
       fill="#FFFFFF" />
    <!-- Wrench icon -->
    <path
       d="m 165,192 c -10,0 -20,8 -22,18 l 18,18 c 10,-2 18,-12 18,-22 0,-8 -6,-14 -14,-14 z"
       fill="#68D391" />
    <path
       d="m 143,210 c -2,10 4,22 11,29 l 29,29 c 7,7 19,13 29,11 l -58,-58 c -4,-4 -9,-9 -11,-11 z"
       fill="#68D391" />
    <!-- Fixer text -->
    <g transform="translate(245,240)" fill="#FFFFFF">
      <path d="M 0,0 H 60 V 15 H 15 V 35 H 50 V 50 H 15 V 100 H 0 Z" />
      <path d="M 70,0 V 100 H 85 V 60 H 100 V 100 H 115 V 0 H 100 V 45 H 85 V 0 Z" />
      <path d="M 125,0 V 15 H 145 V 100 H 160 V 15 H 180 V 0 Z" />
      <path d="M 190,0 V 100 H 205 V 75 L 215,65 235,100 H 255 L 225,50 255,15 V 0 H 235 L 205,40 V 0 Z" />
      <path d="M 265,0 V 100 H 320 V 85 H 280 V 60 H 310 V 45 H 280 V 15 H 320 V 0 Z" />
      <path d="M 330,0 V 100 H 345 V 55 C 345,45 355,35 365,35 S 385,45 385,55 V 100 H 400 V 55 C 400,35 385,20 365,20 355,20 345,25 340,32 V 0 Z" />
    </g>
  </g>
</svg>