<?xml version="1.0" encoding="UTF-8" standalone="no"?>
<svg
   width="512"
   height="256"
   viewBox="0 0 512 256"
   version="1.1"
   xmlns="http://www.w3.org/2000/svg"
   xmlns:svg="http://www.w3.org/2000/svg">
  <!-- Pin shape with wrench (black background, green wrench) -->
  <g transform="translate(0,0)">
    <path
       d="M 160,30 C 120,30 85,65 85,105 c 0,50 75,120 75,120 0,0 75,-70 75,-120 0,-40 -35,-75 -75,-75 z"
       fill="#000000" />
     
    <!-- Wrench icon -->
    <path
       d="m 155,70 c -10,0 -20,8 -22,18 l 18,18 c 10,-2 18,-12 18,-22 0,-8 -6,-14 -14,-14 z"
       fill="#68D391" />
    <path
       d="m 133,88 c -2,10 4,22 11,29 l 29,29 c 7,7 19,13 29,11 l -58,-58 c -4,-4 -9,-9 -11,-11 z"
       fill="#68D391" />
       
    <!-- "Fixer" text in white -->
    <g transform="translate(230,110)" fill="#FFFFFF">
      <!-- F -->
      <path d="M 0,0 H 30 V 12 H 12 V 28 H 25 V 40 H 12 V 80 H 0 Z" />
      
      <!-- i -->
      <path d="M 40,0 V 80 H 52 V 0 Z" />
      
      <!-- x -->
      <path d="M 62,0 V 10 L 74,25 62,40 V 50 H 74 L 85,35 96,50 H 108 V 40 L 96,25 108,10 V 0 H 96 L 85,15 74,0 Z" />
      
      <!-- e -->
      <path d="M 118,10 V 70 H 170 V 58 H 130 V 45 H 160 V 33 H 130 V 22 H 170 V 10 Z" />
      
      <!-- r -->
      <path d="M 180,10 V 70 H 192 V 33 C 192,24 202,22 208,22 V 10 C 202,10 195,12 192,18 V 10 Z" />
    </g>
  </g>
</svg>