<?xml version="1.0" encoding="UTF-8" standalone="no"?>
<svg width="512" height="160" viewBox="0 0 512 160" fill="none" xmlns="http://www.w3.org/2000/svg">
  <!-- Logo Background -->
  <rect width="512" height="160" rx="20" fill="#68D391" fill-opacity="0.2"/>
  
  <!-- Fixer Text -->
  <path d="M60 120H124V100H90V80H120V60H90V40H124V20H60V120Z" 
        fill="#68D391" stroke="#2E7D32" stroke-width="6" stroke-linejoin="round"/>
  <path d="M140 120H160V40H140V120Z" 
        fill="#68D391" stroke="#2E7D32" stroke-width="6" stroke-linejoin="round"/>
  <path d="M190 120L220 30H250L280 120H260L250 90H220L210 120H190ZM226 70H244L235 40L226 70Z" 
        fill="#68D391" stroke="#2E7D32" stroke-width="6" stroke-linejoin="round"/>
  <path d="M300 120V20H320V100H370V120H300Z" 
        fill="#68D391" stroke="#2E7D32" stroke-width="6" stroke-linejoin="round"/>
  <path d="M390 120V20H450C460 20 468 23 474 29C480 35 483 42 483 50C483 58 480 65 474 71C468 77 460 80 450 80H410V120H390ZM410 60H450C453 60 456 59 458 57C460 55 461 53 461 50C461 47 460 45 458 43C456 41 453 40 450 40H410V60Z" 
        fill="#68D391" stroke="#2E7D32" stroke-width="6" stroke-linejoin="round"/>
  
  <!-- Tool icon - Wrench -->
  <path d="M25 70C23.8 68.8 22.2 68 20.4 67.8C18.6 67.6 16.8 68 15.4 69C14 70 12.9 71.6 12.2 73.5C11.5 75.4 11.4 77.4 12 79.4L0 91.4C-2 89.8 -4.3 89 -6.8 89C-9.3 89 -11.6 89.8 -13.6 91.4L-43 62C-44 61 -45.3 60.5 -46.8 60.5C-48.3 60.5 -49.6 61 -50.6 62C-51.6 63 -52.1 64.3 -52.1 65.8C-52.1 67.3 -51.6 68.6 -50.6 69.6L-21.2 99C-23.8 101 -24.6 103.3 -24.6 105.8C-24.6 109.3 -23.2 112.6 -20.7 115.1C-18.2 117.6 -14.9 119 -11.4 119C-7.9 119 -4.6 117.6 -2.1 115.1C0.4 112.6 1.8 109.3 1.8 105.8C1.8 103.3 1 101 -0.6 99L11.4 87C13.2 87.6 15.2 87.5 17 86.8C18.8 86.1 20.4 84.5 21.4 82.5C22.4 80.5 22.8 78.2 22.5 76C22.2 73.8 21.4 71.8 20 70.2L25 70Z" 
        transform="translate(70 20)" 
        fill="#68D391" stroke="#2E7D32" stroke-width="6" stroke-linecap="round" stroke-linejoin="round"/>
</svg>