<?xml version="1.0" encoding="UTF-8"?>
<svg width="512" height="512" viewBox="0 0 512 512" fill="none" xmlns="http://www.w3.org/2000/svg">
  <!-- Map pin shape -->
  <path d="M256 40C180 40 120 100 120 176C120 280 256 476 256 476C256 476 392 280 392 176C392 100 332 40 256 40Z" fill="#10B981"/>
  
  <!-- White border -->
  <path d="M256 40C180 40 120 100 120 176C120 280 256 476 256 476C256 476 392 280 392 176C392 100 332 40 256 40Z" fill="none" stroke="white" stroke-width="16"/>
  
  <!-- Wrench shape - white -->
  <path d="M300 140C278 140 260 158 260 180C260 184 260.5 188 262 191.5L210 243.5C206.5 242 202.5 241.5 198.5 241.5C176.5 241.5 158.5 259.5 158.5 281.5C158.5 303.5 176.5 321.5 198.5 321.5C220.5 321.5 238.5 303.5 238.5 281.5C238.5 277.5 238 273.5 236.5 270L288.5 218C292 219.5 296 220 300 220C322 220 340 202 340 180C340 158 322 140 300 140Z" fill="white"/>
</svg>